<?xml version="1.0" encoding="UTF-8" standalone="no"?>
<!-- Created with Inkscape (http://www.inkscape.org/) -->

<svg
   version="1.1"
   id="svg1"
   width="3038.6667"
   height="2633.3333"
   viewBox="0 0 3038.6667 2633.3333"
   sodipodi:docname="0c087db9-cc3a-4642-b6ff-a5e568c499fa.eps"
   xmlns:inkscape="http://www.inkscape.org/namespaces/inkscape"
   xmlns:sodipodi="http://sodipodi.sourceforge.net/DTD/sodipodi-0.dtd"
   xmlns="http://www.w3.org/2000/svg"
   xmlns:svg="http://www.w3.org/2000/svg">
  <defs
     id="defs1" />
  <sodipodi:namedview
     id="namedview1"
     pagecolor="#ffffff"
     bordercolor="#000000"
     borderopacity="0.25"
     inkscape:showpageshadow="2"
     inkscape:pageopacity="0.0"
     inkscape:pagecheckerboard="0"
     inkscape:deskcolor="#d1d1d1">
    <inkscape:page
       x="0"
       y="0"
       inkscape:label="1"
       id="page1"
       width="3038.6667"
       height="2633.3333"
       margin="0"
       bleed="0" />
  </sodipodi:namedview>
  <g
     id="g1"
     inkscape:groupmode="layer"
     inkscape:label="1">
    <g
       id="group-R5">
      <path
         id="path2"
         d="m 10616.5,15534.9 c 1992.9,1.6 6500.2,-3366.1 5210.2,-3137.1 -4195.3,744.9 -5249.6,-1362.9 -5101.8,519 147.8,1881.9 -477.5,2285.9 -477.5,2285.9 -84.4,210.9 73.3,331.9 369.1,332.2 z M 4565.57,10042.4 c 526.82,902.7 1393.16,1998.8 2741.65,2822.9 2657.25,1623.9 350.27,-4463.5 1914.04,-3298.9 3867.64,2880.4 8160.64,1773.7 9124.84,1518.2 -700.2,961.4 -1834.1,2279.7 -3248.6,3075.4 -2217.8,2241.8 -4900.9,2213.3 -5664.2,2015.5 -502.86,-130.3 -3965.99,-2854.1 -5374.91,-6004.7 166.02,-16.7 331.2,-57.3 490.81,-122.2 5.42,-2.1 10.95,-4 16.37,-6.2"
         style="fill:#c0233b;fill-opacity:1;fill-rule:nonzero;stroke:none"
         transform="matrix(0.13333333,0,0,-0.13333333,0,2633.3333)" />
      <path
         id="path3"
         d="m 13050,5897.2 c -236.5,-71.5 -466.5,-147.7 -690.5,-227.8 -224,-80 -442,-163.8 -654.4,-250.5 -318.5,-129.9 -624.4,-266.2 -919,-405.5 -196.4,-92.9 -387.8,-187.1 -574.5,-281.7 -93.4,-47.3 -185.6,-94.8 -276.72,-142.1 C 9388.29,4305.3 8881.6,4022.1 8404.12,3766 c -31.42,-16.8 -62.57,-29.9 -93.47,-40 -2.58,-0.8 -5.23,-2.5 -7.8,-3.3 -27.82,-8.9 -55.28,-13.7 -82.64,-17.6 -0.05,-0.1 -0.11,-0.1 -0.16,-0.1 -0.47,-0.4 -0.94,-0.7 -1.4,-1.1 0,0 1776.71,-825.2 5368.75,781.8 3506.1,1568.5 6571.9,1715.9 6571.9,1715.9 -2915.6,535.1 -5217.7,267.6 -7109.3,-304.4"
         style="fill:#f89d86;fill-opacity:1;fill-rule:nonzero;stroke:none"
         transform="matrix(0.13333333,0,0,-0.13333333,0,2633.3333)" />
      <path
         id="path4"
         d="m 18358.1,7935.5 c -2747.3,249.7 -3978.8,-269.7 -4870,-341 -891.2,-71.4 -606.8,1001.3 -233.5,1129.7 2745.4,944.7 4246.9,699.2 4960.4,385.1 713.5,-314.1 364,-1193.9 143.1,-1173.8 z m 767.9,1956.7 c -1187.8,224.7 -7107.7,197.7 -10645.14,-1755.8 -195.76,-332.1 -264.13,-726.9 -115.97,-1192.8 288.07,-906 1170.8,-1093.3 2022.41,-993.6 916.1,107.2 1767.9,457.2 2645,720 1315,394 2661.2,639.8 4036.7,649 790.4,5.3 1570,-91.7 2344.7,-243.1 362.1,-70.8 731.9,-143.9 1086.9,-255 72.8,1003.6 -395.7,2886.1 -1374.6,3071.3"
         style="fill:#feeadf;fill-opacity:1;fill-rule:nonzero;stroke:none"
         transform="matrix(0.13333333,0,0,-0.13333333,0,2633.3333)" />
      <path
         id="path5"
         d="m 17069,7319 c -1375.5,-9.2 -2721.7,-255 -4036.7,-649 -877.1,-262.8 -1728.9,-612.8 -2645,-720 -851.61,-99.7 -1734.34,87.6 -2022.41,993.6 -148.23,466.1 -79.74,861.1 116.22,1193.3 -65.92,-36.4 -130.99,-73.5 -195.21,-111.2 -0.44,-0.3 -0.89,-0.5 -1.32,-0.8 -62.93,-36.9 -124.97,-74.6 -186.19,-112.9 -1.94,-1.2 -3.9,-2.4 -5.84,-3.6 -58.65,-36.8 -116.35,-74.2 -173.34,-112.2 -4.49,-3 -9.08,-5.9 -13.54,-8.9 -53.46,-35.8 -105.94,-72.3 -157.85,-109.2 -7.58,-5.4 -15.37,-10.7 -22.93,-16.1 -48.26,-34.6 -95.5,-70 -142.35,-105.6 -10.37,-7.8 -21.04,-15.5 -31.33,-23.4 -43.86,-33.8 -86.65,-68.3 -129.21,-102.9 -12.26,-10 -24.9,-19.7 -37.03,-29.7 -40.93,-33.9 -80.69,-68.5 -120.32,-103.2 -12.71,-11.1 -25.9,-21.9 -38.46,-33.1 -51.35,-45.8 -101.64,-92.3 -150.68,-139.6 -52.95,-51 -93.85,-127.1 -123.63,-222.7 -19.84,-63.7 -34.75,-136.1 -44.97,-215.4 -15.32,-119 -20.11,-253.7 -15.24,-398.4 4.86,-144.8 19.37,-299.6 42.63,-458.9 15.52,-106.1 34.93,-214.3 57.96,-322.7 23.03,-108.4 49.69,-217.2 79.71,-324.5 75.05,-268.4 171.12,-528.3 284.08,-753.5 45.18,-90.1 93.07,-174.6 143.39,-252 50.33,-77.3 103.09,-147.4 158.03,-208.6 192.28,-214.4 411.19,-319.9 645.38,-245.1 33.46,10.7 67.23,25.1 101.27,43.3 477.48,256.1 984.17,539.3 1530.76,823.6 91.12,47.3 183.32,94.8 276.72,142.1 186.7,94.6 378.1,188.8 574.5,281.7 294.6,139.3 600.5,275.6 919,405.5 212.4,86.7 430.4,170.5 654.4,250.5 224,80.1 454,156.3 690.5,227.8 1891.6,572 4193.7,839.5 7109.3,304.4 20.3,-3.7 39.4,-3.6 57.9,-1.4 2.5,0.3 5.1,0.3 7.6,0.7 17.3,2.8 33.7,8.6 49.4,16.4 2.9,1.5 5.9,3 8.7,4.6 15.3,8.7 29.8,19.4 43.5,32.7 2.4,2.3 4.6,5 7,7.4 13.8,14.4 27,30.5 39.1,49.4 1,1.6 1.9,3.4 2.9,5 11.6,18.5 22.3,39.2 32.3,61.7 1.6,3.4 3.3,6.6 4.8,10.2 9.8,23 18.7,48.1 26.9,74.6 1.9,5.9 3.7,11.8 5.5,17.9 7.8,26.6 14.8,54.7 21.1,84.3 1.5,7 2.9,14.1 4.3,21.2 6,30.8 11.6,62.7 16.2,96.4 0.7,5.7 1.3,11.7 2.1,17.5 4.1,32.2 7.5,65.5 10.3,100 0.5,6 1.1,11.7 1.6,17.8 0.1,1 0.2,1.9 0.2,2.8 0,0 0,0.1 -0.1,0.1 -355,111.1 -724.8,184.2 -1086.9,255 -774.7,151.4 -1554.3,248.4 -2344.7,243.1"
         style="fill:#fbcec0;fill-opacity:1;fill-rule:nonzero;stroke:none"
         transform="matrix(0.13333333,0,0,-0.13333333,0,2633.3333)" />
      <path
         id="path6"
         d="m 7264.65,7297.2 c 39.62,34.7 79.42,69.3 120.32,103.2 12.13,10 24.77,19.7 37.03,29.7 42.52,34.6 85.37,69.1 129.21,102.9 10.29,7.9 20.96,15.6 31.33,23.4 46.83,35.7 94.12,70.9 142.35,105.6 7.56,5.4 15.35,10.7 22.93,16.1 51.89,36.9 104.42,73.3 157.85,109.2 4.46,3 9.05,5.9 13.54,8.9 56.95,38 114.71,75.4 173.34,112.2 1.94,1.2 3.9,2.4 5.84,3.6 61.19,38.3 123.27,75.9 186.19,112.9 0.43,0.3 0.88,0.5 1.32,0.8 3510.4,2063.4 9630.3,2095.4 10840.1,1866.5 0,0 -85.6,305.3 -779.6,1192.3 -0.1,0.1 -0.2,0.1 -0.3,0.1 -964.2,255.5 -5257.2,1362.2 -9124.84,-1518.2 -1563.77,-1164.6 743.21,4922.8 -1914.04,3298.9 -1348.49,-824.1 -2214.83,-1920.2 -2741.65,-2822.9 -0.05,-0.1 -0.11,-0.2 -0.15,-0.2 v 0 c 39.92,-16.7 79.27,-35 118.31,-54.77 8.37,-4.2 16.68,-8.55 25,-12.88 33.35,-17.48 66.38,-35.59 98.92,-55.33 18.73,-11.25 37,-23.58 55.43,-35.56 23.73,-15.58 47.63,-30.6 70.83,-47.41 43.3,-31.16 85.81,-64.09 127,-99.75 34.98,-30.3 67.59,-62.1 99.3,-94.5 20.31,-20.4 39.96,-41.1 59.12,-62.1 787.99,920 1699.15,1626.9 2649.42,2168.2 -1039.83,-2156 -793.24,-4623.6 -793.24,-4623.6 49.04,47.3 99.34,93.7 150.68,139.6 12.56,11.2 25.75,22 38.46,33.1"
         style="fill:#a11828;fill-opacity:1;fill-rule:nonzero;stroke:none"
         transform="matrix(0.13333333,0,0,-0.13333333,0,2633.3333)" />
      <path
         id="path7"
         d="m 4425.93,8953.2 c -768.98,-97.3 -934.96,-199.3 -1021.06,-401 -86.12,-201.8 -224.75,-667.5 -627.41,-353.8 -258.34,201.3 -123.02,1320.7 701.22,1566.78 824.24,246.02 1193.29,-246.08 1230.21,-319.88 36.9,-73.8 56.86,-449 -282.96,-492.1 z m 734.28,688.8 c -32.1,32.1 -64.33,64.3 -99.3,94.5 -41.17,35.64 -83.76,68.43 -127,99.75 -23.2,16.81 -47.1,31.83 -70.83,47.41 -18.39,12.07 -36.74,24.23 -55.43,35.56 -32.54,19.74 -65.57,37.85 -98.92,55.33 -8.31,4.37 -16.64,8.66 -25,12.88 -39.04,19.77 -78.39,38.07 -118.31,54.77 -5.39,2.2 -10.82,4.2 -16.22,6.4 -159.61,64.9 -324.79,105.5 -490.81,122.2 -519.39,52.3 -1042.54,-127.9 -1396.55,-537 -465.78,-538.2 -498.82,-1309.1 -142.71,-1921.9 258.43,-144.9 557.07,-228.1 882.18,-228.1 970.35,0 1899.93,853.2 1855.05,1855 -3.39,76 -11.48,151 -23,224.9 -4.76,5.3 -9.21,10.9 -14.03,16.2 -19.16,21 -38.81,41.7 -59.12,62.1"
         style="fill:#feeadf;fill-opacity:1;fill-rule:nonzero;stroke:none"
         transform="matrix(0.13333333,0,0,-0.13333333,0,2633.3333)" />
      <path
         id="path8"
         d="m 3401.31,7483.8 c -325.11,0 -623.75,83.2 -882.18,228.1 -1.1,0.6 -2.23,1.1 -3.31,1.7 8.06,-13.9 17.57,-27.2 26.04,-40.9 11.37,-18.5 22.88,-36.9 34.96,-55 18.46,-27.8 38.12,-54.8 58.26,-81.7 12.59,-16.8 24.88,-33.8 38.13,-50.3 23.06,-28.7 47.76,-56.4 72.79,-83.9 12.28,-13.5 23.81,-27.5 36.56,-40.7 38.67,-40.1 79.1,-79 122.08,-116.2 410.37,-355.2 929.75,-496 1411.64,-428.8 374.81,52.3 726.94,230.4 987.45,531.4 35.75,41.4 68.65,84.2 99.34,128.1 10.09,14.4 18.6,29.6 28.15,44.3 19.45,29.9 38.8,59.8 55.99,90.7 10.25,18.4 19,37.4 28.46,56.1 14.19,28.1 28.34,56.2 40.74,84.9 8.85,20.5 16.47,41.5 24.41,62.3 10.61,27.7 20.95,55.5 29.94,83.8 6.99,22 13.08,44.2 19.1,66.4 7.48,27.6 14.48,55.3 20.47,83.3 4.96,23.1 9.31,46.4 13.24,69.8 4.63,27.5 8.52,55 11.75,82.7 2.79,24 5.27,48.1 7.01,72.3 1.96,27.2 2.91,54.5 3.53,81.9 0.55,24.7 1.11,49.4 0.56,74.1 -0.58,27 -2.45,53.8 -4.33,80.8 -1.76,25.1 -3.19,50.3 -6.07,75.4 -3.02,26.3 -7.56,52.5 -11.81,78.8 -4.12,25.5 -7.64,51.1 -12.91,76.4 -5.26,25.3 -12.32,50.3 -18.73,75.5 -6.62,26 -12.35,52.1 -20.19,77.9 -6.47,21.3 -14.84,42.1 -22.14,63.2 -19.26,55.6 -41.35,110.4 -66.31,164.4 -9.39,20.4 -17.84,41 -28.04,61 -13.61,26.8 -29.25,52.7 -44.29,78.9 -11.86,20.7 -23.09,41.6 -35.83,61.9 -15.94,25.4 -33.58,50 -50.89,74.8 -14.1,20.1 -27.88,40.4 -42.88,60.1 -18.25,24 -37.86,47.2 -57.45,70.4 -10.75,12.8 -20.38,26.2 -31.55,38.7 0.14,-0.9 0.22,-1.8 0.36,-2.7 11.52,-73.9 19.61,-148.9 23,-224.9 44.88,-1001.8 -884.7,-1855 -1855.05,-1855"
         style="fill:#fbcec0;fill-opacity:1;fill-rule:nonzero;stroke:none"
         transform="matrix(0.13333333,0,0,-0.13333333,0,2633.3333)" />
      <path
         id="path9"
         d="m 10724.9,12916.8 c -147.8,-1881.9 906.5,225.9 5101.8,-519 1290,-229 -3217.3,3138.7 -5210.2,3137.1 -295.8,-0.3 -453.5,-121.3 -369.1,-332.2 0,0 625.3,-404 477.5,-2285.9"
         style="fill:#ef2d41;fill-opacity:1;fill-rule:nonzero;stroke:none"
         transform="matrix(0.13333333,0,0,-0.13333333,0,2633.3333)" />
      <path
         id="path10"
         d="m 18215,9109.3 c -713.5,314.1 -2215,559.6 -4960.4,-385.1 -373.3,-128.4 -657.7,-1201.1 233.5,-1129.7 891.2,71.3 2122.7,590.7 4870,341 220.9,-20.1 570.4,859.7 -143.1,1173.8"
         style="fill:#fffcfe;fill-opacity:1;fill-rule:nonzero;stroke:none"
         transform="matrix(0.13333333,0,0,-0.13333333,0,2633.3333)" />
      <path
         id="path11"
         d="M 3478.68,9765.18 C 2654.44,9519.1 2519.12,8399.7 2777.46,8198.4 c 402.66,-313.7 541.29,152 627.41,353.8 86.1,201.7 252.08,303.7 1021.06,401 339.82,43.1 319.86,418.3 282.96,492.1 -36.92,73.8 -405.97,565.9 -1230.21,319.88"
         style="fill:#fffcfe;fill-opacity:1;fill-rule:nonzero;stroke:none"
         transform="matrix(0.13333333,0,0,-0.13333333,0,2633.3333)" />
    </g>
  </g>
</svg>
