<?xml version="1.0" encoding="utf-8"?>
<!-- Generator: Adobe Illustrator 27.5.0, SVG Export Plug-In . SVG Version: 6.00 Build 0)  -->
<svg version="1.1" xmlns="http://www.w3.org/2000/svg" xmlns:xlink="http://www.w3.org/1999/xlink" x="0px" y="0px"
	 viewBox="0 0 800 800" style="enable-background:new 0 0 800 800;" xml:space="preserve">
<g id="background">
	<rect style="fill:#FFFFFF;stroke:#201600;stroke-miterlimit:10;" width="800" height="800"/>
</g>
<g id="objects">
	<g>
		<g>
			<path style="fill:#312A20;" d="M266.398,768.793v-0.27c-0.36,0.421-0.717,0.753-1.064,1.01c-0.351,0.266-0.731,0.458-1.142,0.596
				c-0.411,0.132-0.857,0.202-1.341,0.202c-0.641,0-1.238-0.137-1.783-0.413c-0.548-0.266-1.022-0.657-1.418-1.165
				c-0.4-0.496-0.705-1.093-0.912-1.776c-0.206-0.684-0.309-1.424-0.309-2.216c0-1.679,0.41-2.987,1.226-3.928
				c0.822-0.938,1.898-1.406,3.231-1.406c0.779,0,1.429,0.136,1.958,0.398c0.535,0.27,1.05,0.679,1.554,1.22v-3.958
				c0-0.552,0.11-0.964,0.331-1.253c0.219-0.289,0.533-0.423,0.933-0.423c0.407,0,0.722,0.133,0.942,0.396
				c0.221,0.255,0.331,0.639,0.331,1.139v11.848c0,0.515-0.122,0.898-0.354,1.157c-0.24,0.251-0.541,0.381-0.92,0.381
				c-0.364,0-0.666-0.13-0.904-0.398C266.518,769.672,266.398,769.285,266.398,768.793z M261.124,764.851
				c0,0.723,0.11,1.348,0.335,1.856c0.228,0.516,0.54,0.896,0.928,1.158c0.393,0.26,0.822,0.392,1.288,0.392
				c0.468,0,0.901-0.133,1.293-0.373c0.388-0.244,0.699-0.617,0.934-1.127c0.231-0.516,0.349-1.145,0.349-1.906
				c0-0.718-0.117-1.332-0.349-1.842c-0.234-0.519-0.545-0.919-0.94-1.188c-0.402-0.274-0.833-0.407-1.303-0.407
				c-0.493,0-0.933,0.141-1.317,0.412c-0.386,0.282-0.685,0.691-0.9,1.214C261.229,763.554,261.124,764.161,261.124,764.851z"/>
			<path style="fill:#312A20;" d="M279.113,765.528h-5.245c0.007,0.61,0.127,1.148,0.366,1.613c0.24,0.47,0.554,0.819,0.958,1.051
				c0.393,0.242,0.829,0.353,1.307,0.353c0.324,0,0.614-0.03,0.882-0.106c0.262-0.074,0.515-0.201,0.769-0.355
				c0.249-0.155,0.479-0.331,0.692-0.521c0.207-0.181,0.475-0.433,0.809-0.743c0.14-0.115,0.334-0.184,0.592-0.184
				c0.276,0,0.493,0.074,0.668,0.224c0.167,0.153,0.255,0.374,0.255,0.643c0,0.25-0.097,0.528-0.286,0.856
				c-0.19,0.326-0.477,0.637-0.865,0.932c-0.375,0.299-0.857,0.545-1.44,0.751c-0.575,0.192-1.243,0.29-2,0.29
				c-1.724,0-3.058-0.496-4.021-1.478c-0.954-0.981-1.434-2.313-1.434-4.003c0-0.796,0.121-1.532,0.354-2.21
				c0.24-0.678,0.582-1.266,1.034-1.745c0.453-0.489,1.009-0.86,1.671-1.126c0.663-0.256,1.397-0.374,2.205-0.374
				c1.046,0,1.943,0.214,2.688,0.659c0.754,0.44,1.321,1.013,1.694,1.714c0.37,0.699,0.557,1.421,0.557,2.147
				c0,0.675-0.193,1.119-0.579,1.313C280.356,765.429,279.811,765.528,279.113,765.528z M273.868,764.005h4.859
				c-0.059-0.923-0.306-1.601-0.743-2.06c-0.427-0.458-0.994-0.687-1.692-0.687c-0.665,0-1.217,0.229-1.644,0.69
				C274.217,762.414,273.954,763.097,273.868,764.005z"/>
			<path style="fill:#312A20;" d="M292.218,766.819c0,0.74-0.18,1.373-0.538,1.898c-0.362,0.535-0.895,0.935-1.598,1.201
				c-0.703,0.276-1.559,0.413-2.566,0.413c-0.961,0-1.789-0.146-2.482-0.443c-0.688-0.295-1.194-0.666-1.521-1.102
				c-0.325-0.447-0.49-0.894-0.49-1.338c0-0.296,0.104-0.547,0.314-0.757c0.21-0.212,0.47-0.316,0.799-0.316
				c0.279,0,0.493,0.068,0.643,0.209c0.154,0.127,0.301,0.329,0.436,0.576c0.274,0.48,0.604,0.834,0.986,1.07
				c0.381,0.234,0.912,0.356,1.568,0.356c0.537,0,0.974-0.122,1.323-0.356c0.344-0.241,0.512-0.515,0.512-0.813
				c0-0.482-0.178-0.834-0.532-1.043c-0.361-0.215-0.946-0.431-1.768-0.619c-0.919-0.232-1.673-0.465-2.251-0.72
				c-0.582-0.256-1.043-0.586-1.394-1.001c-0.343-0.418-0.518-0.924-0.518-1.526c0-0.534,0.155-1.049,0.482-1.531
				c0.317-0.473,0.791-0.853,1.415-1.14c0.632-0.289,1.383-0.427,2.265-0.427c0.692,0,1.317,0.067,1.875,0.215
				c0.556,0.141,1.015,0.336,1.384,0.584c0.373,0.24,0.652,0.512,0.844,0.803c0.195,0.295,0.29,0.581,0.29,0.865
				c0,0.308-0.102,0.567-0.306,0.752c-0.211,0.202-0.503,0.299-0.881,0.299c-0.278,0-0.509-0.071-0.705-0.235
				c-0.194-0.151-0.413-0.39-0.659-0.709c-0.208-0.26-0.449-0.473-0.72-0.63c-0.275-0.155-0.649-0.237-1.122-0.237
				c-0.486,0-0.884,0.111-1.206,0.318c-0.323,0.201-0.479,0.461-0.479,0.766c0,0.284,0.116,0.513,0.349,0.69
				c0.237,0.186,0.552,0.339,0.954,0.453c0.396,0.114,0.951,0.257,1.654,0.435c0.825,0.204,1.511,0.445,2.037,0.722
				c0.527,0.289,0.926,0.621,1.197,1.001C292.085,765.89,292.218,766.329,292.218,766.819z"/>
			<path style="fill:#312A20;" d="M295.851,758.163c-0.38,0-0.698-0.124-0.957-0.345c-0.271-0.233-0.4-0.558-0.4-0.978
				c0-0.382,0.132-0.698,0.407-0.944c0.272-0.24,0.584-0.366,0.95-0.366c0.343,0,0.647,0.112,0.921,0.335
				c0.268,0.227,0.399,0.552,0.399,0.976c0,0.415-0.125,0.735-0.392,0.974C296.518,758.039,296.211,758.163,295.851,758.163z
				 M297.171,760.933v7.766c0,0.533-0.125,0.944-0.38,1.217c-0.255,0.279-0.58,0.416-0.975,0.416c-0.394,0-0.713-0.137-0.957-0.424
				c-0.245-0.282-0.366-0.686-0.366-1.209v-7.686c0-0.53,0.122-0.935,0.366-1.194c0.244-0.274,0.563-0.407,0.957-0.407
				c0.395,0,0.719,0.133,0.975,0.407C297.046,760.077,297.171,760.449,297.171,760.933z"/>
			<path style="fill:#312A20;" d="M309.809,761.375v7.807c0,0.886-0.091,1.657-0.287,2.297c-0.185,0.651-0.492,1.169-0.911,1.598
				c-0.419,0.413-0.962,0.73-1.645,0.937c-0.681,0.199-1.525,0.301-2.531,0.301c-0.924,0-1.752-0.128-2.477-0.383
				c-0.724-0.263-1.28-0.605-1.685-1.012c-0.385-0.406-0.583-0.823-0.583-1.261c0-0.335,0.112-0.599,0.333-0.8
				c0.217-0.211,0.487-0.315,0.804-0.315c0.395,0,0.738,0.173,1.033,0.526c0.139,0.175,0.29,0.352,0.445,0.535
				c0.159,0.177,0.324,0.335,0.513,0.461c0.187,0.131,0.413,0.222,0.669,0.285c0.265,0.062,0.567,0.094,0.905,0.094
				c0.696,0,1.236-0.094,1.621-0.285c0.384-0.195,0.651-0.469,0.81-0.813c0.15-0.349,0.236-0.722,0.262-1.112
				c0.027-0.402,0.047-1.038,0.065-1.922c-0.414,0.571-0.893,1.021-1.436,1.317c-0.538,0.304-1.176,0.461-1.927,0.461
				c-0.895,0-1.682-0.235-2.352-0.694c-0.674-0.457-1.192-1.102-1.545-1.932c-0.366-0.828-0.545-1.778-0.545-2.869
				c0-0.798,0.11-1.524,0.329-2.179c0.22-0.647,0.528-1.197,0.941-1.64c0.405-0.452,0.875-0.782,1.407-1.018
				c0.529-0.216,1.11-0.332,1.744-0.332c0.758,0,1.418,0.142,1.979,0.439c0.552,0.288,1.07,0.747,1.549,1.365v-0.353
				c0-0.472,0.115-0.831,0.345-1.088c0.232-0.256,0.521-0.38,0.883-0.38c0.519,0,0.862,0.171,1.033,0.503
				C309.724,760.254,309.809,760.733,309.809,761.375z M302.037,764.79c0,1.082,0.238,1.905,0.712,2.459
				c0.476,0.553,1.087,0.841,1.844,0.841c0.446,0,0.87-0.122,1.26-0.369c0.396-0.238,0.72-0.597,0.97-1.077
				c0.254-0.483,0.377-1.07,0.377-1.751c0-1.101-0.246-1.951-0.725-2.559c-0.485-0.616-1.118-0.921-1.9-0.921
				c-0.77,0-1.387,0.291-1.843,0.884C302.268,762.878,302.037,763.703,302.037,764.79z"/>
			<path style="fill:#312A20;" d="M314.96,760.896v0.323c0.472-0.622,0.983-1.082,1.546-1.37c0.564-0.294,1.204-0.438,1.931-0.438
				c0.708,0,1.342,0.152,1.898,0.456c0.556,0.313,0.972,0.747,1.249,1.315c0.174,0.326,0.291,0.683,0.339,1.055
				c0.053,0.391,0.082,0.869,0.082,1.463v5c0,0.533-0.125,0.944-0.369,1.217c-0.246,0.279-0.569,0.416-0.958,0.416
				c-0.403,0-0.723-0.137-0.975-0.424c-0.25-0.282-0.375-0.686-0.375-1.209v-4.474c0-0.886-0.12-1.568-0.369-2.04
				c-0.243-0.467-0.736-0.697-1.469-0.697c-0.475,0-0.915,0.139-1.305,0.431c-0.397,0.272-0.684,0.664-0.864,1.164
				c-0.131,0.412-0.198,1.154-0.198,2.246v3.37c0,0.542-0.125,0.954-0.378,1.22c-0.254,0.276-0.578,0.413-0.977,0.413
				c-0.387,0-0.705-0.137-0.954-0.424c-0.251-0.282-0.371-0.686-0.371-1.209v-7.766c0-0.513,0.11-0.897,0.335-1.143
				c0.223-0.255,0.527-0.379,0.912-0.379c0.235,0,0.449,0.055,0.638,0.159c0.187,0.121,0.346,0.289,0.456,0.508
				C314.903,760.302,314.96,760.577,314.96,760.896z"/>
			<path style="fill:#312A20;" d="M332.16,765.528h-5.243c0.003,0.61,0.123,1.148,0.367,1.613c0.237,0.47,0.559,0.819,0.952,1.051
				c0.398,0.242,0.838,0.353,1.313,0.353c0.321,0,0.616-0.03,0.879-0.106c0.27-0.074,0.522-0.201,0.779-0.355
				c0.244-0.155,0.475-0.331,0.68-0.521c0.214-0.181,0.482-0.433,0.816-0.743c0.14-0.115,0.337-0.184,0.594-0.184
				c0.274,0,0.492,0.074,0.661,0.224c0.178,0.153,0.26,0.374,0.26,0.643c0,0.25-0.095,0.528-0.284,0.856
				c-0.19,0.326-0.48,0.637-0.864,0.932c-0.38,0.299-0.857,0.545-1.445,0.751c-0.574,0.192-1.247,0.29-1.997,0.29
				c-1.724,0-3.061-0.496-4.02-1.478c-0.952-0.981-1.435-2.313-1.435-4.003c0-0.796,0.121-1.532,0.355-2.21
				c0.232-0.678,0.583-1.266,1.033-1.745c0.453-0.489,1.005-0.86,1.668-1.126c0.66-0.256,1.396-0.374,2.204-0.374
				c1.042,0,1.948,0.214,2.693,0.659c0.75,0.44,1.314,1.013,1.693,1.714c0.37,0.699,0.552,1.421,0.552,2.147
				c0,0.675-0.195,1.119-0.58,1.313C333.41,765.429,332.868,765.528,332.16,765.528z M326.917,764.005h4.861
				c-0.065-0.923-0.312-1.601-0.744-2.06c-0.423-0.458-0.993-0.687-1.695-0.687c-0.665,0-1.212,0.229-1.645,0.69
				C327.271,762.414,327.009,763.097,326.917,764.005z"/>
			<path style="fill:#312A20;" d="M343.986,768.793v-0.27c-0.366,0.421-0.716,0.753-1.067,1.01
				c-0.355,0.266-0.738,0.458-1.139,0.596c-0.411,0.132-0.858,0.202-1.344,0.202c-0.64,0-1.236-0.137-1.785-0.413
				c-0.547-0.266-1.017-0.657-1.419-1.165c-0.398-0.496-0.7-1.093-0.907-1.776c-0.211-0.684-0.311-1.424-0.311-2.216
				c0-1.679,0.411-2.987,1.225-3.928c0.825-0.938,1.908-1.406,3.238-1.406c0.774,0,1.425,0.136,1.951,0.398
				c0.532,0.27,1.051,0.679,1.558,1.22v-3.958c0-0.552,0.105-0.964,0.33-1.253c0.216-0.289,0.532-0.423,0.937-0.423
				c0.406,0,0.715,0.133,0.94,0.396c0.213,0.255,0.328,0.639,0.328,1.139v11.848c0,0.515-0.12,0.898-0.356,1.157
				c-0.234,0.251-0.545,0.381-0.912,0.381c-0.372,0-0.669-0.13-0.913-0.398C344.104,769.672,343.986,769.285,343.986,768.793z
				 M338.71,764.851c0,0.723,0.114,1.348,0.336,1.856c0.228,0.516,0.539,0.896,0.93,1.158c0.394,0.26,0.821,0.392,1.287,0.392
				c0.471,0,0.904-0.133,1.293-0.373c0.381-0.244,0.697-0.617,0.929-1.127c0.235-0.516,0.353-1.145,0.353-1.906
				c0-0.718-0.118-1.332-0.353-1.842c-0.232-0.519-0.548-0.919-0.944-1.188c-0.393-0.274-0.829-0.407-1.298-0.407
				c-0.494,0-0.93,0.141-1.321,0.412c-0.386,0.282-0.683,0.691-0.893,1.214C338.814,763.554,338.71,764.161,338.71,764.851z"/>
			<path style="fill:#312A20;" d="M356.721,756.945v4.1c0.505-0.514,1.018-0.921,1.539-1.196c0.532-0.286,1.175-0.422,1.949-0.422
				c0.887,0,1.672,0.216,2.342,0.634c0.67,0.421,1.193,1.037,1.557,1.851c0.378,0.795,0.561,1.745,0.561,2.85
				c0,0.813-0.107,1.56-0.307,2.237c-0.21,0.677-0.509,1.27-0.904,1.766c-0.391,0.497-0.87,0.889-1.431,1.154
				c-0.56,0.276-1.173,0.413-1.846,0.413c-0.422,0-0.803-0.051-1.168-0.146c-0.36-0.096-0.671-0.231-0.934-0.396
				c-0.25-0.161-0.465-0.323-0.65-0.49c-0.175-0.174-0.414-0.434-0.708-0.776v0.27c0,0.507-0.125,0.892-0.368,1.157
				c-0.237,0.251-0.544,0.381-0.925,0.381c-0.372,0-0.681-0.13-0.906-0.381c-0.228-0.265-0.339-0.65-0.339-1.157v-11.732
				c0-0.542,0.108-0.95,0.33-1.23c0.221-0.287,0.524-0.421,0.916-0.421c0.416,0,0.737,0.133,0.96,0.402
				C356.604,756.078,356.721,756.459,356.721,756.945z M356.848,764.927c0,1.071,0.244,1.892,0.734,2.466
				c0.483,0.575,1.122,0.864,1.919,0.864c0.67,0,1.253-0.296,1.741-0.88c0.495-0.593,0.736-1.434,0.736-2.526
				c0-0.716-0.104-1.318-0.305-1.834c-0.206-0.509-0.498-0.909-0.869-1.191c-0.37-0.271-0.808-0.412-1.303-0.412
				c-0.512,0-0.964,0.141-1.367,0.412c-0.395,0.282-0.716,0.691-0.949,1.219C356.962,763.578,356.848,764.205,356.848,764.927z"/>
			<path style="fill:#312A20;" d="M369.031,770.661l0.242-0.6l-3.299-8.32c-0.201-0.482-0.304-0.82-0.304-1.044
				c0-0.224,0.063-0.443,0.18-0.643c0.115-0.196,0.272-0.349,0.482-0.468c0.211-0.119,0.42-0.177,0.646-0.177
				c0.39,0,0.676,0.124,0.872,0.359c0.199,0.254,0.374,0.608,0.522,1.064l2.275,6.614l2.146-6.15c0.173-0.5,0.334-0.891,0.462-1.173
				c0.136-0.275,0.291-0.468,0.443-0.569c0.151-0.094,0.365-0.144,0.653-0.144c0.198,0,0.396,0.055,0.579,0.159
				c0.191,0.113,0.336,0.256,0.432,0.441c0.111,0.184,0.156,0.376,0.156,0.578c-0.026,0.122-0.072,0.29-0.125,0.527
				c-0.06,0.232-0.137,0.469-0.218,0.704l-3.502,9.165c-0.306,0.813-0.595,1.445-0.888,1.899c-0.281,0.465-0.665,0.809-1.137,1.059
				c-0.48,0.241-1.121,0.369-1.925,0.369c-0.785,0-1.372-0.085-1.764-0.25c-0.397-0.176-0.591-0.486-0.591-0.938
				c0-0.308,0.088-0.544,0.277-0.713c0.188-0.174,0.463-0.251,0.832-0.251c0.143,0,0.283,0.021,0.42,0.057
				c0.172,0.042,0.315,0.054,0.447,0.054c0.303,0,0.55-0.04,0.726-0.131c0.178-0.093,0.332-0.252,0.471-0.482
				C368.684,771.435,368.852,771.101,369.031,770.661z"/>
		</g>
		<g>
			<path style="fill:#312A20;" d="M418.666,759.643h0.639v-0.804c0-0.841,0.104-1.512,0.327-2c0.203-0.5,0.567-0.857,1.076-1.083
				c0.507-0.233,1.198-0.345,2.094-0.345c1.557,0,2.343,0.385,2.343,1.154c0,0.246-0.088,0.46-0.25,0.642
				c-0.164,0.178-0.354,0.266-0.574,0.266c-0.112,0-0.295-0.021-0.549-0.064c-0.25-0.037-0.469-0.055-0.642-0.055
				c-0.49,0-0.801,0.141-0.939,0.424c-0.136,0.293-0.205,0.699-0.205,1.222v0.643h0.663c1.022,0,1.53,0.311,1.53,0.935
				c0,0.433-0.13,0.708-0.408,0.832c-0.271,0.112-0.642,0.176-1.122,0.176h-0.663v7.113c0,0.525-0.125,0.931-0.373,1.213
				c-0.258,0.283-0.581,0.42-0.982,0.42c-0.377,0-0.697-0.137-0.954-0.42c-0.245-0.282-0.372-0.688-0.372-1.213v-7.113h-0.741
				c-0.398,0-0.7-0.089-0.915-0.278c-0.224-0.175-0.328-0.408-0.328-0.699C417.32,759.961,417.77,759.643,418.666,759.643z"/>
			<path style="fill:#312A20;" d="M428.249,766.445v2.253c0,0.542-0.125,0.954-0.38,1.22c-0.261,0.276-0.585,0.413-0.977,0.413
				c-0.382,0-0.704-0.137-0.947-0.416c-0.257-0.272-0.38-0.684-0.38-1.217v-7.479c0-1.208,0.43-1.809,1.305-1.809
				c0.441,0,0.765,0.138,0.96,0.421c0.2,0.278,0.309,0.701,0.329,1.249c0.322-0.548,0.65-0.971,0.987-1.249
				c0.337-0.283,0.784-0.421,1.352-0.421c0.559,0,1.108,0.138,1.639,0.421c0.532,0.278,0.794,0.657,0.794,1.116
				c0,0.338-0.108,0.599-0.336,0.821c-0.226,0.205-0.467,0.31-0.734,0.31c-0.097,0-0.332-0.059-0.708-0.168
				c-0.376-0.134-0.705-0.193-1.006-0.193c-0.387,0-0.709,0.103-0.957,0.315c-0.252,0.202-0.437,0.511-0.583,0.917
				c-0.136,0.406-0.23,0.893-0.287,1.454C428.27,764.962,428.249,765.648,428.249,766.445z"/>
			<path style="fill:#312A20;" d="M441.382,765.528h-5.247c0.014,0.61,0.131,1.148,0.373,1.613c0.235,0.47,0.551,0.819,0.952,1.051
				c0.393,0.242,0.829,0.353,1.308,0.353c0.322,0,0.618-0.03,0.883-0.106c0.268-0.074,0.518-0.201,0.77-0.355
				c0.256-0.155,0.478-0.331,0.686-0.521c0.214-0.181,0.488-0.433,0.824-0.743c0.136-0.115,0.335-0.184,0.59-0.184
				c0.272,0,0.495,0.074,0.662,0.224c0.163,0.153,0.257,0.374,0.257,0.643c0,0.25-0.094,0.528-0.284,0.856
				c-0.194,0.326-0.481,0.637-0.855,0.932c-0.384,0.299-0.871,0.545-1.451,0.751c-0.581,0.192-1.248,0.29-1.998,0.29
				c-1.729,0-3.064-0.496-4.021-1.478c-0.956-0.981-1.435-2.313-1.435-4.003c0-0.796,0.12-1.532,0.359-2.21
				c0.23-0.678,0.572-1.266,1.027-1.745c0.451-0.489,1.01-0.86,1.676-1.126c0.652-0.256,1.388-0.374,2.201-0.374
				c1.045,0,1.933,0.214,2.688,0.659c0.753,0.44,1.315,1.013,1.689,1.714c0.37,0.699,0.563,1.421,0.563,2.147
				c0,0.675-0.193,1.119-0.584,1.313C442.624,765.429,442.092,765.528,441.382,765.528z M436.135,764.005h4.867
				c-0.071-0.923-0.305-1.601-0.734-2.06c-0.439-0.458-1.003-0.687-1.702-0.687c-0.674,0-1.215,0.229-1.65,0.69
				C436.49,762.414,436.233,763.097,436.135,764.005z"/>
			<path style="fill:#312A20;" d="M453.344,765.528h-5.25c0.011,0.61,0.131,1.148,0.369,1.613c0.239,0.47,0.561,0.819,0.952,1.051
				c0.397,0.242,0.836,0.353,1.312,0.353c0.322,0,0.606-0.03,0.876-0.106c0.266-0.074,0.532-0.201,0.773-0.355
				c0.247-0.155,0.477-0.331,0.686-0.521c0.211-0.181,0.493-0.433,0.821-0.743c0.14-0.115,0.331-0.184,0.59-0.184
				c0.274,0,0.498,0.074,0.666,0.224c0.169,0.153,0.252,0.374,0.252,0.643c0,0.25-0.093,0.528-0.277,0.856
				c-0.193,0.326-0.479,0.637-0.866,0.932c-0.381,0.299-0.862,0.545-1.44,0.751c-0.582,0.192-1.25,0.29-1.999,0.29
				c-1.721,0-3.064-0.496-4.019-1.478c-0.958-0.981-1.435-2.313-1.435-4.003c0-0.796,0.121-1.532,0.351-2.21
				c0.235-0.678,0.579-1.266,1.031-1.745c0.454-0.489,1.008-0.86,1.675-1.126c0.662-0.256,1.395-0.374,2.197-0.374
				c1.046,0,1.949,0.214,2.701,0.659c0.746,0.44,1.309,1.013,1.687,1.714c0.374,0.699,0.556,1.421,0.556,2.147
				c0,0.675-0.191,1.119-0.581,1.313C454.585,765.429,454.046,765.528,453.344,765.528z M448.094,764.005h4.86
				c-0.065-0.923-0.314-1.601-0.738-2.06c-0.431-0.458-0.99-0.687-1.691-0.687c-0.671,0-1.216,0.229-1.65,0.69
				C448.455,762.414,448.181,763.097,448.094,764.005z"/>
			<path style="fill:#312A20;" d="M460.023,760.921v0.31c0.512-0.618,1.032-1.077,1.572-1.365c0.545-0.297,1.158-0.439,1.85-0.439
				c0.824,0,1.581,0.216,2.279,0.639c0.693,0.43,1.239,1.051,1.648,1.867c0.398,0.815,0.6,1.789,0.6,2.918
				c0,0.822-0.119,1.579-0.353,2.273c-0.228,0.693-0.548,1.275-0.957,1.742c-0.402,0.47-0.88,0.833-1.431,1.088
				c-0.556,0.25-1.151,0.377-1.786,0.377c-0.768,0-1.412-0.158-1.932-0.463c-0.526-0.31-1.023-0.763-1.49-1.354v4.027
				c0,1.179-0.436,1.771-1.28,1.771c-0.513,0-0.845-0.152-1.01-0.453c-0.166-0.309-0.241-0.757-0.241-1.335v-11.593
				c0-0.513,0.11-0.897,0.33-1.143c0.221-0.255,0.526-0.379,0.921-0.379c0.377,0,0.683,0.124,0.92,0.388
				C459.907,760.055,460.023,760.432,460.023,760.921z M465.281,764.821c0-0.709-0.107-1.32-0.326-1.824
				c-0.217-0.513-0.515-0.907-0.896-1.177c-0.38-0.274-0.806-0.407-1.277-0.407c-0.73,0-1.355,0.291-1.871,0.884
				c-0.503,0.581-0.762,1.442-0.762,2.573c0,1.063,0.253,1.896,0.762,2.493c0.5,0.598,1.127,0.893,1.871,0.893
				c0.456,0,0.863-0.133,1.236-0.392c0.388-0.262,0.691-0.643,0.919-1.16C465.161,766.176,465.281,765.553,465.281,764.821z"/>
			<path style="fill:#312A20;" d="M471.49,758.163c-0.383,0-0.707-0.124-0.966-0.345c-0.261-0.233-0.398-0.558-0.398-0.978
				c0-0.382,0.138-0.698,0.411-0.944c0.263-0.24,0.584-0.366,0.953-0.366c0.338,0,0.648,0.112,0.916,0.335
				c0.266,0.227,0.402,0.552,0.402,0.976c0,0.415-0.131,0.735-0.397,0.974C472.151,758.039,471.836,758.163,471.49,758.163z
				 M472.809,760.933v7.766c0,0.533-0.131,0.944-0.389,1.217c-0.252,0.279-0.569,0.416-0.971,0.416
				c-0.393,0-0.712-0.137-0.952-0.424c-0.245-0.282-0.371-0.686-0.371-1.209v-7.686c0-0.53,0.126-0.935,0.371-1.194
				c0.24-0.274,0.559-0.407,0.952-0.407c0.401,0,0.719,0.133,0.971,0.407C472.678,760.077,472.809,760.449,472.809,760.933z"/>
			<path style="fill:#312A20;" d="M482.261,769.101l-2.373-3.899l-1.455,1.382v2.134c0,0.515-0.124,0.912-0.397,1.194
				c-0.279,0.283-0.598,0.42-0.938,0.42c-0.422,0-0.738-0.137-0.975-0.416c-0.245-0.272-0.356-0.684-0.356-1.217v-11.452
				c0-0.598,0.109-1.052,0.336-1.361c0.236-0.317,0.565-0.474,0.995-0.474c0.411,0,0.734,0.134,0.978,0.423
				c0.241,0.289,0.357,0.701,0.357,1.253v6.514l3.022-3.169c0.376-0.396,0.655-0.666,0.85-0.807
				c0.197-0.148,0.439-0.215,0.719-0.215c0.337,0,0.612,0.1,0.841,0.322c0.219,0.209,0.33,0.477,0.33,0.8
				c0,0.395-0.364,0.916-1.091,1.571l-1.427,1.31l2.751,4.33c0.212,0.325,0.352,0.565,0.444,0.731
				c0.079,0.164,0.129,0.329,0.129,0.475c0,0.429-0.115,0.763-0.348,1.017c-0.233,0.238-0.548,0.365-0.921,0.365
				c-0.331,0-0.575-0.093-0.76-0.27C482.798,769.888,482.563,769.565,482.261,769.101z"/>
			<path style="fill:#312A20;" d="M488.892,770.331c-0.403,0-0.756-0.13-1.048-0.398c-0.298-0.258-0.452-0.625-0.452-1.099
				c0-0.399,0.146-0.744,0.427-1.032c0.284-0.287,0.639-0.436,1.042-0.436c0.413,0,0.767,0.148,1.06,0.429
				c0.29,0.288,0.439,0.63,0.439,1.039c0,0.466-0.148,0.838-0.439,1.099C489.627,770.201,489.289,770.331,488.892,770.331z"/>
			<path style="fill:#312A20;" d="M503.032,767.002c0,0.335-0.098,0.69-0.301,1.07c-0.2,0.391-0.505,0.746-0.908,1.092
				c-0.41,0.344-0.934,0.624-1.551,0.827c-0.624,0.213-1.329,0.318-2.104,0.318c-1.657,0-2.951-0.483-3.88-1.453
				c-0.929-0.965-1.398-2.263-1.398-3.889c0-1.103,0.215-2.081,0.641-2.925c0.421-0.845,1.043-1.498,1.854-1.959
				c0.804-0.461,1.762-0.688,2.885-0.688c0.691,0,1.325,0.097,1.905,0.305c0.585,0.195,1.075,0.454,1.48,0.781
				c0.402,0.318,0.705,0.66,0.919,1.025c0.215,0.37,0.319,0.705,0.319,1.023c0,0.327-0.118,0.597-0.362,0.815
				c-0.234,0.224-0.525,0.332-0.865,0.332c-0.223,0-0.414-0.06-0.556-0.168c-0.152-0.115-0.31-0.298-0.494-0.558
				c-0.325-0.498-0.669-0.877-1.028-1.125c-0.357-0.246-0.814-0.368-1.359-0.368c-0.788,0-1.428,0.312-1.918,0.927
				c-0.482,0.625-0.728,1.466-0.728,2.543c0,0.508,0.062,0.973,0.194,1.393c0.116,0.42,0.303,0.781,0.534,1.09
				c0.233,0.287,0.525,0.522,0.855,0.673c0.332,0.154,0.706,0.229,1.104,0.229c0.532,0,0.994-0.127,1.379-0.367
				c0.381-0.264,0.718-0.631,1.016-1.149c0.169-0.298,0.342-0.537,0.531-0.698c0.19-0.178,0.419-0.259,0.694-0.259
				c0.334,0,0.597,0.113,0.815,0.369C502.921,766.462,503.032,766.722,503.032,767.002z"/>
			<path style="fill:#312A20;" d="M515.412,764.87c0,0.791-0.116,1.532-0.374,2.206c-0.245,0.681-0.607,1.262-1.081,1.742
				c-0.469,0.489-1.027,0.867-1.688,1.132c-0.658,0.251-1.395,0.381-2.215,0.381c-0.804,0-1.535-0.13-2.186-0.398
				c-0.642-0.258-1.213-0.633-1.691-1.117c-0.465-0.498-0.833-1.072-1.075-1.739c-0.243-0.661-0.368-1.403-0.368-2.206
				c0-0.815,0.125-1.552,0.38-2.241c0.244-0.666,0.599-1.249,1.059-1.727c0.472-0.481,1.036-0.848,1.696-1.104
				c0.663-0.264,1.387-0.388,2.186-0.388c0.819,0,1.55,0.133,2.215,0.392c0.663,0.258,1.228,0.636,1.699,1.124
				c0.475,0.482,0.826,1.057,1.069,1.729C515.296,763.326,515.412,764.065,515.412,764.87z M512.721,764.87
				c0-1.099-0.244-1.949-0.727-2.562c-0.475-0.605-1.12-0.914-1.939-0.914c-0.52,0-0.982,0.133-1.387,0.403
				c-0.395,0.275-0.704,0.682-0.923,1.211c-0.214,0.531-0.32,1.152-0.32,1.861c0,0.702,0.107,1.313,0.32,1.836
				c0.212,0.528,0.52,0.923,0.913,1.204c0.398,0.282,0.861,0.413,1.397,0.413c0.819,0,1.464-0.294,1.939-0.906
				C512.477,766.795,512.721,765.943,512.721,764.87z"/>
			<path style="fill:#312A20;" d="M526.448,765.063v3.575c0,0.564-0.128,0.987-0.378,1.27c-0.262,0.287-0.6,0.424-1.019,0.424
				c-0.405,0-0.735-0.137-0.987-0.424c-0.251-0.282-0.385-0.705-0.385-1.27v-4.281c0-0.681-0.019-1.191-0.06-1.575
				c-0.046-0.371-0.171-0.683-0.378-0.918c-0.203-0.242-0.519-0.357-0.963-0.357c-0.872,0-1.455,0.298-1.731,0.903
				c-0.275,0.604-0.419,1.469-0.419,2.593v3.635c0,0.558-0.123,0.977-0.381,1.264c-0.253,0.284-0.585,0.43-0.995,0.43
				c-0.402,0-0.732-0.146-0.999-0.43c-0.258-0.286-0.388-0.706-0.388-1.264v-7.69c0-0.498,0.112-0.887,0.347-1.145
				c0.241-0.26,0.544-0.392,0.915-0.392c0.378,0,0.684,0.124,0.92,0.359c0.255,0.254,0.373,0.598,0.373,1.027v0.248
				c0.465-0.55,0.964-0.961,1.499-1.224c0.523-0.259,1.117-0.394,1.762-0.394c0.681,0,1.257,0.136,1.739,0.404
				c0.49,0.267,0.887,0.678,1.203,1.214c0.448-0.541,0.938-0.95,1.457-1.22c0.512-0.263,1.088-0.398,1.714-0.398
				c0.735,0,1.369,0.142,1.897,0.432c0.534,0.296,0.924,0.707,1.186,1.239c0.237,0.487,0.349,1.25,0.349,2.295v5.245
				c0,0.564-0.135,0.987-0.39,1.27c-0.248,0.287-0.583,0.424-1.004,0.424c-0.4,0-0.742-0.146-0.995-0.43
				c-0.267-0.286-0.392-0.706-0.392-1.264v-4.521c0-0.573-0.022-1.035-0.075-1.389c-0.057-0.345-0.18-0.639-0.394-0.869
				c-0.221-0.238-0.549-0.353-0.986-0.353c-0.357,0-0.685,0.106-1.004,0.314c-0.315,0.2-0.571,0.488-0.749,0.852
				C526.544,763.114,526.448,763.916,526.448,765.063z"/>
		</g>
		<g>
			<path style="fill:#312A20;" d="M397.527,752.481c-0.053-0.168-0.106-0.345-0.162-0.512c0.892-0.085,1.501-1.17,1.064-1.97
				c-0.406-0.902-1.793-1.013-2.328-0.185c-0.571,0.735-0.124,1.892,0.749,2.126c0.061,0.179,0.105,0.373,0.163,0.554
				c-1.348,0.097-2.723,0.393-3.864,1.165c0.121,0.32,0.236,0.662,0.354,0.987c2.292-1.003,4.843-0.785,7.259-0.545
				c0.085-0.316,0.162-0.638,0.242-0.959C399.911,752.657,398.716,752.475,397.527,752.481z"/>
			<path style="fill:#312A20;" d="M411.125,756.177c-0.36,0.182-0.429,0.626-0.412,0.988c-0.402,0.387-0.206,0.986-0.248,1.471
				c-0.093,0.277-0.423,0.31-0.65,0.416c-0.318-0.49-0.651-0.949-1.083-1.345l0.01-0.022c-0.465-0.429-0.964-0.824-1.487-1.168
				c-0.42,0.45-0.864,0.901-1.27,1.369c0.805,0.884,1.548,1.847,2.203,2.843c0.457,0.763,0.817,1.574,1.136,2.405
				c0.678-0.352,1.351-0.718,2.032-1.073c-0.361-0.829-0.77-1.641-1.205-2.435c0.298-0.16,0.703-0.317,0.747-0.712
				c0.035-0.436-0.055-0.905,0.196-1.289c0.529,0.342,1.326-0.039,1.333-0.679C412.498,756.279,411.667,755.807,411.125,756.177z"/>
			<path style="fill:#312A20;" d="M407.447,761.116c-0.886-1.471-1.842-2.935-3.147-4.066c-1.498-1.328-3.453-2.223-5.485-2.214
				c-2.559-0.022-5.157,0.381-7.515,1.415c-2.226,0.978-4.162,2.731-5.138,4.98c-0.945,2.023-0.93,4.361-0.506,6.521
				c2.358,0.586,4.757,1.109,7.184,1.22c2.404,0.078,4.811,0.134,7.198-0.194c3.273-0.439,6.485-1.468,9.343-3.15
				C409.381,765.627,408.984,763.471,407.447,761.116z M395.866,764.027c-0.447,0.644-1.087,1.143-1.818,1.423
				c-1.381,0.514-3.056,0.161-4.049-0.938c-0.691-0.763-1.101-1.786-1.029-2.828c0.057-1.294,0.857-2.502,1.993-3.107
				c0.86-0.463,1.901-0.548,2.851-0.281c0.394,0.096,0.753,0.281,1.093,0.506c0.704,0.493,1.222,1.223,1.459,2.055
				C396.686,761.918,396.478,763.104,395.866,764.027z M405.797,761.685c-0.162,1.112-1.221,2.043-2.35,1.972
				c-0.653,0.058-1.282-0.25-1.729-0.715c-0.317-0.398-0.578-0.852-0.624-1.377c-0.157-1.119,0.637-2.282,1.735-2.55
				c0.481-0.134,0.992-0.058,1.47,0.058C405.328,759.433,406.004,760.607,405.797,761.685z"/>
			<path style="fill:#312A20;" d="M386.19,757.831c-0.958,0.581-1.745,1.396-2.402,2.293c-0.193-0.358-0.249-0.783-0.498-1.1
				c-0.143-0.191-0.399-0.111-0.597-0.111c-0.256,0.021-0.501-0.047-0.743-0.118c0.284-0.392,0.208-1-0.22-1.265
				c-0.459-0.323-1.171-0.041-1.295,0.509c-0.19,0.597,0.444,1.2,1.031,1.041c0.314,0.463,0.878,0.388,1.356,0.401
				c0.214,0.377,0.379,0.787,0.656,1.126c-0.516,1.014-0.807,2.149-0.833,3.285c0.664,0.278,1.327,0.558,1.984,0.838
				c0.03-0.726,0.117-1.438,0.223-2.138c0.22-1.548,1.11-2.883,2.168-3.983C386.759,758.332,386.465,758.09,386.19,757.831z"/>
			<path style="fill:#312A20;" d="M401.602,769.448c-2.432,0.533-4.934,0.689-7.417,0.58c-1.68-0.078-3.361-0.24-4.999-0.605
				c-1.164-0.237-2.306-0.576-3.455-0.905c0.186,1.464,0.778,2.863,1.622,4.072c0.997,1.403,2.332,2.687,3.988,3.208
				c1.29,0.355,2.831,0.794,5.493,0.747c2.196-0.033,4.353-0.315,6.277-1.142c1.245-0.532,2.404-1.258,3.411-2.174
				c0.865-0.817,1.546-1.836,2.008-2.926c0.453-1.036,0.863-2.887,0.819-3.842C406.972,767.817,404.316,768.995,401.602,769.448z"/>
		</g>
	</g>
	<g>
		<g>
			<path d="M203.088,436.81c0,0,121.289-218.016,234.086-213.367c52.271,2.155,80.667,54.58,189.018,187.39
				c23.68,29.025-73.957,0.844-99.832-13.711c0,0,29.678,71.323,17.55,81.504C521.256,497.642,188.534,470.771,203.088,436.81z"/>
			<path style="fill:#FF0000;" d="M214.989,431.339c0,0,117.473-205.47,219.314-200.9c52.262,2.345,64.324,43.946,183.472,178.285
				c24.855,28.025-78.717-9.817-104.593-24.371c0,0,33.153,80.05,21.025,90.231C511.553,493.6,200.434,465.299,214.989,431.339z"/>
			<path d="M533.792,394.077c-23.439-14.475-31.93-28.12-58.411-67.336c0,0,39.928,64.925,46.647,80.675
				c6.72,15.75-3.59-15.027,0.655-15.027S536.182,395.552,533.792,394.077z"/>
			<path style="fill:#BA0808;" d="M475.381,326.74c0,0,89.802,82.597,124.642,83.022c0,0-3.117,4.079-3.667,5.668
				c-0.417,1.205-47.293-3.131-79.019-31.988C504.21,371.502,484.852,340.772,475.381,326.74z"/>
			<path d="M460.028,332.805c0,0,24.459,12.937,54.497,60.486C525.396,410.499,497.02,347.764,460.028,332.805z"/>
		</g>
		<g>
			<path d="M556.344,493.337c-0.495-6.746-0.266-11.763-17.707-26.07c-18.356-9.955-32.218-13.512-43.255-14.848
				c-3.575-0.434,18.395-3.008,15.385-3.985c-48.516-15.768-95.818-12.332-95.818-12.332l17.284-10.511
				c-28.604-7.885-89.09-6.377-115.904-2.459l19.429-9.216c-38.666-1.87-84.902,3.968-107.871,15.085
				c-2.298,1.113,1.069-6.262,1.069-6.262l-16.761,4.67c-18.54,6.636-26.521,14.498-27.281,33.827l-0.266,30.723
				c-0.547,9.507,11.494,17.166,27.468,13.458c0,0,38.529-8.045,155.166,0.17c110.185,7.761,149.423,34.535,149.423,34.535
				c18.271,8.081,28.894-1.364,35.337-19.125L556.344,493.337z"/>
			<path style="fill:#FFFFFF;" d="M528.875,536.977c-2.731,0-5.852-0.742-9.28-2.21c-2.893-1.851-11.365-8.533-40.852-16.815
				c-2.076-0.583,6.857-1.092,6.857-1.092c-17.284-2.426-53.776-10.246-77.602-13.34c-5.678-0.736,14.43-2.911,8.247-3.54
				c-7.153-0.728-40.685,0.111-48.537-0.442c-31.446-2.215-80.92,0.038-99.922-9.867c-2.489-1.299,9.185,6.156,6.465,6.156
				c-24.087,0-40.298,0.677-50.245,1.937c-9.512,1.206-13.959-3.055-13.428-2.129c2.351,4.093,0.586,3.785,0.298,3.846l-0.132,0.029
				c-2.276,0.528-4.515,0.796-6.654,0.796c-4.98,0-9.374-1.504-11.753-4.024c-1.165-1.234-1.715-2.57-1.634-3.974l0.01-0.297
				l0.264-30.629c0.62-15.518,8.887-24.977,30.719-31.243l-3.841,7.378c23.752-10.107,37.347-19.779,95.009-19.811
				c-0.869,1.197-13.039,11.432-13.039,11.432s49.021-6.378,118.219,0.293c-0.345,0.98-10.979,8.693-10.979,8.693
				s27.088,1.414,30.727,1.414c18.132,0,40.48,4.552,55.287,9.047c-5.862,0.758-8.545,3.736-8.667,4.067
				c0,0,7.456,1.579,11.333,2.54c13.608,3.373,54.946,16.387,54.501,37.883l-4.103,26.396
				c-6.491,17.443-14.537,17.506-17.238,17.506C528.894,536.977,528.884,536.977,528.875,536.977z"/>
			<path style="fill:#E5E5E5;" d="M542.38,527.54c-5.555,9.388-11.281,9.437-13.476,9.437h-0.037c-2.729,0-5.845-0.752-9.277-2.22
				c-2.888-1.843-11.365-8.525-40.85-16.809c-2.074-0.583,6.865-1.092,6.865-1.092c-17.296-2.426-53.779-10.249-77.613-13.342
				c-5.676-0.74,14.434-2.912,8.248-3.542c-7.156-0.728-40.68,0.109-48.528-0.437c-31.45-2.22-80.923,0.036-99.929-9.873
				c-2.486-1.298,9.182,6.162,6.465,6.162c-24.088,0-40.292,0.679-50.238,1.94c-9.521,1.201-13.96-3.056-13.438-2.134
				c2.352,4.087,0.594,3.784,0.303,3.845l-0.134,0.036c-2.28,0.521-4.512,0.788-6.646,0.788c-4.985,0-9.376-1.503-11.753-4.026
				c-1.176-1.226-1.722-2.571-1.637-3.967l0.012-0.303l0.255-30.625c0.437-10.71,4.499-18.521,14.143-24.404
				c-3.026,2.767-10.606,9.034-9.595,20.151l0.379,24.713l0,0c0.48,3.79,2.412,6.049,3.714,7.126
				c3.942,3.259,9.092,2.444,14.077,2.444c2.134,0,4.378-0.267,6.646-0.788l0.134-0.036c0.291-0.061,2.049,0.242-0.291-3.845
				c-0.534-0.922,3.917,3.335,13.427,2.134c9.945-1.261,26.149-1.939,50.238-1.939c2.729,0-8.951-7.46-6.465-6.162
				c19.006,9.909,68.479,7.653,99.929,9.873c7.847,0.546,44.637,3.15,51.793,3.878c6.174,0.63-11.942,4.718-6.267,5.458
				c23.833,3.093,57.562,7.328,74.845,9.754c0,0-9.502,1.843-7.429,2.426c29.498,8.284,36.048,11.863,38.947,13.706
				c3.42,1.468,6.537,2.22,9.278,2.22c0,0,0.013,0,0.024,0C539.335,528.086,540.705,528.086,542.38,527.54z"/>
		</g>
		<g>
			<path d="M605.095,470.902c-5.431-4.046-36.53-20.999-24.974-55.587c3.386-10.132,13.794-22.931,20.729-28.708
				c0.821-0.684-5.086,14.443-0.303,10.613c15.538-12.441,39.81-23.444,55.914-19.135c1.367,0.365-11.646,7.652-10.29,8.143
				c1.887,0.684,26.38,8.642,35.988,29.462c0,0-5.607-4.122-8.688,0.633c-1.833,2.83,6.723,11.623,2.112,34.466
				c-2.233,11.067-12.674,28.604-23.56,30.354c0,0,0.815-9.578-1.444-8.624c-26.237,11.081-51.548,7.984-53.772,4.549
				C596.574,476.708,608.104,473.147,605.095,470.902z"/>
			<path style="fill:#FFFFFF;" d="M608.822,474.511c1.157,0.009,3.928-1.543,2.063-3.746c-2.355-2.785-36.885-17.396-24.813-53.705
				c1.679-5.053,8.041-16.109,7.688-13.904c-0.38,2.38,0.308,9.543,4.334,4.48c9.447-11.881,31.036-24.835,44.784-24.465
				c0.031,0.349-4.611,2.905-3.173,5.335c1.016,1.72,22.305,4.403,37.19,22.769c-4.756-2.631-8.386,1.096-8.268,2.578
				c0.654,8.168,6.186,15.753,2.858,32.772c-1.774,9.07-7.771,21.953-13.181,25.268c-0.985-1.39,0.256-6.953-4.077-10.876
				c-0.884-0.799-0.013,1.927-4.843,5.596C631.506,480.192,609.646,475.228,608.822,474.511z"/>
			<path style="fill:#E5E5E5;" d="M672.589,437.448c-0.045,2.924-0.372,6.208-1.128,9.938c-1.849,9.047-7.934,21.897-13.366,25.168
				c-0.973-1.401-1.251-7.848-3.069-10.749c-0.253-0.404-0.952,1.77-5.817,5.396c-17.977,13.455-39.798,8.336-40.615,7.615
				c1.151,0.008,3.939-1.524,2.087-3.733c-2.212-2.66-33.201-16.129-25.995-48.304c0.181,25.242,25.101,36.229,27.073,38.608
				c1.852,2.209-0.927,3.741-2.09,3.731c0.821,0.724,22.651,5.841,40.627-7.613c4.854-3.627,3.983-6.344,4.879-5.557
				c2.53,2.225,4.097,9.3,3.999,10.91c5.433-3.273,11.528-16.122,13.366-25.17C672.551,437.606,672.576,437.521,672.589,437.448z"/>
		</g>
	</g>
</g>
</svg>
